# xmcd
#
# Track frame offsets: 
#        150
#        14559
#        32845
#        47681
#        67751
#        80350
#        91601
#        111094
#        127664
#        142845
#        159601
#        176731
#        198865
#        224416
#
# Disc length: 3203 seconds
#
# Revision: 0
# Processed by: cddbd v1.5.2PL0 Copyright (c) Steve Scherf et al.
# Submitted via: ExactAudioCopyFreeDBPlugin 1.0
#
DISCID=ae0c810e
DTITLE=De Waltons - Daﬂ ma a CD ham
DYEAR=2018
DGENRE=
TTITLE0=Kiss
TTITLE1=Don't Stop Believing
TTITLE2=Colours
TTITLE3=C'est la vie
TTITLE4=Hurt So Good
TTITLE5=Galway Girl
TTITLE6=Even The Man In The Moon
TTITLE7=John Henry
TTITLE8=White Freightliner Blues
TTITLE9=You Shook Me All Night Long
TTITLE10=Man In The Mirror
TTITLE11=Waggon Wheel
TTITLE12=Still Haven't Found
TTITLE13=Du bist doch a bloﬂ so schee
EXTD=
EXTT0=
EXTT1=
EXTT2=
EXTT3=
EXTT4=
EXTT5=
EXTT6=
EXTT7=
EXTT8=
EXTT9=
EXTT10=
EXTT11=
EXTT12=
EXTT13=
PLAYORDER=
